<svg height="484" viewBox="0 0 1117 242" width="2234" xmlns="http://www.w3.org/2000/svg"><path d="m0 0h1117v242h-1117z" fill="#fff"/><g fill="none" stroke-miterlimit="10" transform="translate(44 5)"><path d="m.5.5h1000v200h-1000z" stroke="#ddd"/><g pointer-events="none" stroke="#ddd" transform="translate(.5 200.5)"><path d="m16-200v200"/><path d="m64-200v200"/><path d="m111-200v200"/><path d="m158-200v200"/><path d="m206-200v200"/><path d="m254-200v200"/><path d="m301-200v200"/><path d="m349-200v200"/><path d="m397-200v200"/><path d="m445-200v200"/><path d="m492-200v200"/><path d="m539-200v200"/><path d="m587-200v200"/><path d="m635-200v200"/><path d="m682-200v200"/><path d="m729-200v200"/><path d="m777-200v200"/><path d="m825-200v200"/><path d="m873-200v200"/><path d="m920-200v200"/><path d="m968-200v200"/></g><g pointer-events="none" stroke="#ddd" transform="translate(.5 .5)"><path d="m0 200h1000"/><path d="m0 155h1000"/><path d="m0 109h1000"/><path d="m0 64h1000"/><path d="m0 18h1000"/></g><g pointer-events="none" transform="translate(.5 200.5)"><g stroke="#888"><path d="m16 0v5"/><path d="m64 0v5"/><path d="m111 0v5"/><path d="m158 0v5"/><path d="m206 0v5"/><path d="m254 0v5"/><path d="m301 0v5"/><path d="m349 0v5"/><path d="m397 0v5"/><path d="m445 0v5"/><path d="m492 0v5"/><path d="m539 0v5"/><path d="m587 0v5"/><path d="m635 0v5"/><path d="m682 0v5"/><path d="m729 0v5"/><path d="m777 0v5"/><path d="m825 0v5"/><path d="m873 0v5"/><path d="m920 0v5"/><path d="m968 0v5"/></g><g fill="#000" font-family="sans-serif" font-size="10" text-anchor="middle"><text transform="translate(15.640953 15)">Oct 2019</text><text transform="translate(63.628267 15)">Jan 2020</text><text transform="translate(111.050768 15)">Apr 2020</text><text transform="translate(158.494993 15)">Jul 2020</text><text transform="translate(206.460583 15)">Oct 2020</text><text transform="translate(254.447896 15)">Jan 2021</text><text transform="translate(301.349032 15)">Apr 2021</text><text transform="translate(348.793257 15)">Jul 2021</text><text transform="translate(396.758847 15)">Oct 2021</text><text transform="translate(444.74616 15)">Jan 2022</text><text transform="translate(491.647297 15)">Apr 2022</text><text transform="translate(539.091521 15)">Jul 2022</text><text transform="translate(587.057111 15)">Oct 2022</text><text transform="translate(635.044425 15)">Jan 2023</text><text transform="translate(681.945561 15)">Apr 2023</text><text transform="translate(729.389786 15)">Jul 2023</text><text transform="translate(777.355375 15)">Oct 2023</text><text transform="translate(825.342689 15)">Jan 2024</text><text transform="translate(872.76519 15)">Apr 2024</text><text transform="translate(920.209415 15)">Jul 2024</text><text transform="translate(968.175005 15)">Oct 2024</text></g><path d="m0 0h1000" stroke="#888"/><text fill="#000" font-family="sans-serif" font-size="11" font-weight="bold" text-anchor="middle" transform="translate(500 30)">Month of the year</text></g><g pointer-events="none" transform="translate(.5 .5)"><g stroke="#888"><path d="m0 200h-5"/><path d="m0 155h-5"/><path d="m0 109h-5"/><path d="m0 64h-5"/><path d="m0 18h-5"/></g><g fill="#000" font-family="sans-serif" font-size="10" text-anchor="end"><text transform="translate(-7 203)">0</text><text transform="translate(-7 157.545455)">50</text><text transform="translate(-7 112.090909)">100</text><text transform="translate(-7 66.636364)">150</text><text transform="translate(-7 21.181818)">200</text></g><path d="m0 200v-200" stroke="#888"/><text fill="#000" font-family="sans-serif" font-size="11" font-weight="bold" text-anchor="middle" transform="matrix(0 -1 1 0 -29.68457 100)">Number of closed PRs</text></g><g fill="#e45756"><path d="m95.91017314 162.72727273h15.14059479v13.63636364h-15.14059479z"/><path d="m80.79058502 181.81818182h14.11958812v10.90909091h-14.11958812z"/><path d="m48.46594834 188.18181818h15.16231834v7.27272727h-15.16231834z"/><path d="m32.82499511 183.63636364h14.64095323v9.09090909h-14.64095323z"/><path d="m16.64095323 187.27272727h15.18404188v4.54545455h-15.18404188z"/><path d="m1 197.27272727h14.64095323v2.72727273h-14.64095323z"/></g><path d="m604.24115309 142.72727273h14.64095323v23.63636364h-14.64095323z" fill="#eeca3b"/><path d="m349.79325701 180h15.16231834v9.09090909h-15.16231834z" fill="#b279a2"/><path d="m985.35904677 164.54545455h14.64095323v27.27272727h-14.64095323z" fill="#eeca3b"/><path d="m985.35904677 198.18181818h14.64095323v1.81818182h-14.64095323z" fill="#bab0ac"/><path d="m969.17500489 110.90909091h15.18404188v54.54545455h-15.18404188z" fill="#eeca3b"/><path d="m969.17500489 83.63636364h15.18404188v19.09090909h-15.18404188z" fill="#4c78a8"/><path d="m969.17500489 106.36363636h15.18404188v4.54545455h-15.18404188z" fill="#54a24b"/><path d="m969.17500489 165.45454545h15.18404188v7.27272727h-15.18404188z" fill="#b279a2"/><path d="m969.17500489 182.72727273h15.18404188v17.27272727h-15.18404188z" fill="#bab0ac"/><path d="m953.53405166 189.09090909h14.64095323v10.90909091h-14.64095323z" fill="#bab0ac"/><path d="m953.53405166 170.90909091h14.64095323v18.18181818h-14.64095323z" fill="#9d755d"/><path d="m953.53405166 122.72727273h14.64095323v40.90909091h-14.64095323z" fill="#eeca3b"/><path d="m937.37173332 82.72727273h15.16231834v33.63636364h-15.16231834z" fill="#4c78a8"/><path d="m937.37173332 160h15.16231834v15.45454545h-15.16231834z" fill="#eeca3b"/><path d="m937.37173332 181.81818182h15.16231834v17.27272727h-15.16231834z" fill="#9d755d"/><path d="m937.37173332 118.18181818h15.16231834v38.18181818h-15.16231834z" fill="#e45756"/><path d="m921.20941498 175.45454545h15.16231834v17.27272727h-15.16231834z" fill="#9d755d"/><path d="m921.20941498 134.54545455h15.16231834v34.54545455h-15.16231834z" fill="#eeca3b"/><path d="m921.20941498 111.81818182h15.16231834v13.63636364h-15.16231834z" fill="#e45756"/><path d="m905.56846176 141.81818182h14.64095323v23.63636364h-14.64095323z" fill="#eeca3b"/><path d="m905.56846176 170h14.64095323v17.27272727h-14.64095323z" fill="#9d755d"/><path d="m889.40614342 136.36363636h15.16231834v29.09090909h-15.16231834z" fill="#eeca3b"/><path d="m889.40614342 107.27272727h15.16231834v21.81818182h-15.16231834z" fill="#e45756"/><path d="m889.40614342 167.27272727h15.16231834v24.54545455h-15.16231834z" fill="#9d755d"/><path d="m889.40614342 86.36363636h15.16231834v13.63636364h-15.16231834z" fill="#4c78a8"/><path d="m873.76519019 111.81818182h14.64095323v29.09090909h-14.64095323z" fill="#e45756"/><path d="m873.76519019 78.18181818h14.64095323v18.18181818h-14.64095323z" fill="#4c78a8"/><path d="m873.76519019 182.72727273h14.64095323v12.72727273h-14.64095323z" fill="#9d755d"/><path d="m873.76519019 150h14.64095323v26.36363636h-14.64095323z" fill="#eeca3b"/><path d="m857.6245954 174.54545455h15.14059479v9.09090909h-15.14059479z" fill="#9d755d"/><path d="m857.6245954 149.09090909h15.14059479v13.63636364h-15.14059479z" fill="#eeca3b"/><path d="m857.6245954 124.54545455h15.14059479v19.09090909h-15.14059479z" fill="#e45756"/><path d="m857.6245954 183.63636364h15.14059479v16.36363636h-15.14059479z" fill="#bab0ac"/><path d="m842.50500728 160h14.11958812v19.09090909h-14.11958812z" fill="#eeca3b"/><path d="m842.50500728 111.81818182h14.11958812v28.18181818h-14.11958812z" fill="#e45756"/><path d="m842.50500728 180h14.11958812v12.72727273h-14.11958812z" fill="#9d755d"/><path d="m842.50500728 88.18181818h14.11958812v17.27272727h-14.11958812z" fill="#4c78a8"/><path d="m826.34268894 184.54545455h15.16231834v14.54545455h-15.16231834z" fill="#9d755d"/><path d="m826.34268894 154.54545455h15.16231834v28.18181818h-15.16231834z" fill="#eeca3b"/><path d="m826.34268894 130.90909091h15.16231834v15.45454545h-15.16231834z" fill="#e45756"/><path d="m826.34268894 100.90909091h15.16231834v20h-15.16231834z" fill="#4c78a8"/><path d="m810.1803706 145.45454545h15.16231834v20.90909091h-15.16231834z" fill="#eeca3b"/><path d="m794.53941737 93.63636364h14.64095323v62.72727273h-14.64095323z" fill="#eeca3b"/><path d="m810.1803706 167.27272727h15.16231834v28.18181818h-15.16231834z" fill="#9d755d"/><path d="m778.35537549 98.18181818h15.18404188v59.09090909h-15.18404188z" fill="#eeca3b"/><path d="m778.35537549 40h15.18404188v18.18181818h-15.18404188z" fill="#4c78a8"/><path d="m778.35537549 185.45454545h15.18404188v14.54545455h-15.18404188z" fill="#bab0ac"/><path d="m778.35537549 169.09090909h15.18404188v16.36363636h-15.18404188z" fill="#9d755d"/><path d="m762.71442226 172.72727273h14.64095323v17.27272727h-14.64095323z" fill="#9d755d"/><path d="m762.71442226 115.45454545h14.64095323v50.90909091h-14.64095323z" fill="#eeca3b"/><path d="m762.71442226 46.36363636h14.64095323v34.54545455h-14.64095323z" fill="#e45756"/><path d="m762.71442226 190h14.64095323v10h-14.64095323z" fill="#bab0ac"/><path d="m762.71442226 13.63636364h14.64095323v28.18181818h-14.64095323z" fill="#4c78a8"/><path d="m746.55210393 154.54545455h15.16231834v20h-15.16231834z" fill="#eeca3b"/><path d="m746.55210393 124.54545455h15.16231834v18.18181818h-15.16231834z" fill="#e45756"/><path d="m746.55210393 188.18181818h15.16231834v11.81818182h-15.16231834z" fill="#bab0ac"/><path d="m746.55210393 180.90909091h15.16231834v7.27272727h-15.16231834z" fill="#9d755d"/><path d="m746.55210393 99.09090909h15.16231834v19.09090909h-15.16231834z" fill="#4c78a8"/><path d="m730.38978559 104.54545455h15.16231834v55.45454545h-15.16231834z" fill="#eeca3b"/><path d="m730.38978559 44.54545455h15.16231834v22.72727273h-15.16231834z" fill="#4c78a8"/><path d="m730.38978559 165.45454545h15.16231834v11.81818182h-15.16231834z" fill="#9d755d"/><path d="m730.38978559 177.27272727h15.16231834v22.72727273h-15.16231834z" fill="#bab0ac"/><path d="m714.74883236 111.81818182h14.64095323v17.27272727h-14.64095323z" fill="#eeca3b"/><path d="m714.74883236 30.90909091h14.64095323v15.45454545h-14.64095323z" fill="#4c78a8"/><path d="m714.74883236 156.36363636h14.64095323v27.27272727h-14.64095323z" fill="#9d755d"/><path d="m714.74883236 183.63636364h14.64095323v16.36363636h-14.64095323z" fill="#bab0ac"/><path d="m714.74883236 58.18181818h14.64095323v21.81818182h-14.64095323z" fill="#e45756"/><path d="m698.58651402 153.63636364h15.16231834v30.90909091h-15.16231834z" fill="#9d755d"/><path d="m698.58651402 113.63636364h15.16231834v38.18181818h-15.16231834z" fill="#eeca3b"/><path d="m698.58651402 184.54545455h15.16231834v15.45454545h-15.16231834z" fill="#bab0ac"/><path d="m698.58651402 47.27272727h15.16231834v22.72727273h-15.16231834z" fill="#e45756"/><path d="m682.94556079 105.45454545h14.64095323v29.09090909h-14.64095323z" fill="#eeca3b"/><path d="m682.94556079 144.54545455h14.64095323v26.36363636h-14.64095323z" fill="#9d755d"/><path d="m682.94556079 86.36363636h14.64095323v1.81818182h-14.64095323z" fill="#f58518"/><path d="m666.804966 133.63636364h15.14059479v30h-15.14059479z" fill="#9d755d"/><path d="m666.804966 74.54545455h15.14059479v23.63636364h-15.14059479z" fill="#e45756"/><path d="m666.804966 107.27272727h15.14059479v20.90909091h-15.14059479z" fill="#eeca3b"/><path d="m666.804966 98.18181818h15.14059479v9.09090909h-15.14059479z" fill="#54a24b"/><path d="m666.804966 163.63636364h15.14059479v36.36363636h-15.14059479z" fill="#bab0ac"/><path d="m666.804966 44.54545455h15.14059479v20.90909091h-15.14059479z" fill="#4c78a8"/><path d="m652.20674299 162.72727273h13.59822301v22.72727273h-13.59822301z" fill="#9d755d"/><path d="m652.20674299 185.45454545h13.59822301v14.54545455h-13.59822301z" fill="#bab0ac"/><path d="m652.20674299 88.18181818h13.59822301v9.09090909h-13.59822301z" fill="#4c78a8"/><path d="m698.58651402 2.72727273h15.16231834v35.45454545h-15.16231834z" fill="#4c78a8"/><path d="m636.04442465 135.45454545h15.16231834v26.36363636h-15.16231834z" fill="#eeca3b"/><path d="m636.04442465 186.36363636h15.16231834v13.63636364h-15.16231834z" fill="#bab0ac"/><path d="m652.20674299 108.18181818h13.59822301v9.09090909h-13.59822301z" fill="#e45756"/><path d="m636.04442465 166.36363636h15.16231834v20h-15.16231834z" fill="#9d755d"/><path d="m619.88210632 119.09090909h15.16231834v10h-15.16231834z" fill="#4c78a8"/><path d="m619.88210632 190h15.16231834v10h-15.16231834z" fill="#bab0ac"/><path d="m619.88210632 132.72727273h15.16231834v2.72727273h-15.16231834z" fill="#e45756"/><path d="m619.88210632 148.18181818h15.16231834v26.36363636h-15.16231834z" fill="#eeca3b"/><path d="m619.88210632 177.27272727h15.16231834v12.72727273h-15.16231834z" fill="#9d755d"/><path d="m619.88210632 138.18181818h15.16231834v10h-15.16231834z" fill="#54a24b"/><path d="m604.24115309 99.09090909h14.64095323v43.63636364h-14.64095323z" fill="#54a24b"/><path d="m604.24115309 180.90909091h14.64095323v16.36363636h-14.64095323z" fill="#9d755d"/><path d="m604.24115309 166.36363636h14.64095323v14.54545455h-14.64095323z" fill="#b279a2"/><path d="m604.24115309 73.63636364h14.64095323v21.81818182h-14.64095323z" fill="#e45756"/><path d="m588.0571112 177.27272727h15.18404188v21.81818182h-15.18404188z" fill="#9d755d"/><path d="m588.0571112 199.09090909h15.18404188v.90909091h-15.18404188z" fill="#bab0ac"/><path d="m572.41615797 187.27272727h14.64095323v12.72727273h-14.64095323z" fill="#9d755d"/><path d="m572.41615797 92.72727273h14.64095323v22.72727273h-14.64095323z" fill="#e45756"/><path d="m556.25383964 117.27272727h15.16231834v17.27272727h-15.16231834z" fill="#e45756"/><path d="m556.25383964 168.18181818h15.16231834v17.27272727h-15.16231834z" fill="#eeca3b"/><path d="m588.0571112 133.63636364h15.18404188v42.72727273h-15.18404188z" fill="#eeca3b"/><path d="m540.0915213 176.36363636h15.16231834v15.45454545h-15.16231834z" fill="#eeca3b"/><path d="m540.0915213 164.54545455h15.16231834v11.81818182h-15.16231834z" fill="#54a24b"/><path d="m540.0915213 139.09090909h15.16231834v25.45454545h-15.16231834z" fill="#e45756"/><path d="m556.25383964 134.54545455h15.16231834v33.63636364h-15.16231834z" fill="#54a24b"/><path d="m524.45056807 164.54545455h14.64095323v26.36363636h-14.64095323z" fill="#eeca3b"/><path d="m524.45056807 197.27272727h14.64095323v2.72727273h-14.64095323z" fill="#bab0ac"/><path d="m524.45056807 141.81818182h14.64095323v9.09090909h-14.64095323z" fill="#e45756"/><path d="m508.28824973 155.45454545h15.16231834v31.81818182h-15.16231834z" fill="#eeca3b"/><path d="m508.28824973 189.09090909h15.16231834v10.90909091h-15.16231834z" fill="#bab0ac"/><path d="m492.6472965 135.45454545h14.64095323v18.18181818h-14.64095323z" fill="#e45756"/><path d="m492.6472965 171.81818182h14.64095323v17.27272727h-14.64095323z" fill="#eeca3b"/><path d="m476.50670171 110.90909091h15.14059479v10.90909091h-15.14059479z" fill="#e45756"/><path d="m476.50670171 170h15.14059479v13.63636364h-15.14059479z" fill="#eeca3b"/><path d="m476.50670171 121.81818182h15.14059479v48.18181818h-15.14059479z" fill="#54a24b"/><path d="m476.50670171 183.63636364h15.14059479v10.90909091h-15.14059479z" fill="#b279a2"/><path d="m461.9084787 158.18181818h13.59822301v15.45454545h-13.59822301z" fill="#54a24b"/><path d="m461.9084787 173.63636364h13.59822301v24.54545455h-13.59822301z" fill="#eeca3b"/><path d="m461.9084787 116.36363636h13.59822301v6.36363636h-13.59822301z" fill="#4c78a8"/><path d="m445.74616036 160.90909091h15.16231834v22.72727273h-15.16231834z" fill="#eeca3b"/><path d="m445.74616036 183.63636364h15.16231834v15.45454545h-15.16231834z" fill="#b279a2"/><path d="m429.58384203 142.72727273h15.16231834v13.63636364h-15.16231834z" fill="#4c78a8"/><path d="m445.74616036 119.09090909h15.16231834v23.63636364h-15.16231834z" fill="#e45756"/><path d="m429.58384203 178.18181818h15.16231834v16.36363636h-15.16231834z" fill="#eeca3b"/><path d="m429.58384203 196.36363636h15.16231834v3.63636364h-15.16231834z" fill="#bab0ac"/><path d="m429.58384203 194.54545455h15.16231834v1.81818182h-15.16231834z" fill="#b279a2"/><path d="m429.58384203 156.36363636h15.16231834v16.36363636h-15.16231834z" fill="#e45756"/><path d="m413.9428888 128.18181818h14.64095323v5.45454545h-14.64095323z" fill="#4c78a8"/><path d="m413.9428888 133.63636364h14.64095323v14.54545455h-14.64095323z" fill="#e45756"/><path d="m413.9428888 148.18181818h14.64095323v44.54545455h-14.64095323z" fill="#eeca3b"/><path d="m382.11789368 140h14.64095323v10.90909091h-14.64095323z" fill="#e45756"/><path d="m382.11789368 170.90909091h14.64095323v29.09090909h-14.64095323z" fill="#bab0ac"/><path d="m365.95557535 159.09090909h15.16231834v10h-15.16231834z" fill="#e45756"/><path d="m365.95557535 180h15.16231834v6.36363636h-15.16231834z" fill="#b279a2"/><path d="m349.79325701 141.81818182h15.16231834v38.18181818h-15.16231834z" fill="#eeca3b"/><path d="m349.79325701 102.72727273h15.16231834v26.36363636h-15.16231834z" fill="#4c78a8"/><path d="m334.15230378 133.63636364h14.64095323v7.27272727h-14.64095323z" fill="#4c78a8"/><path d="m334.15230378 164.54545455h14.64095323v24.54545455h-14.64095323z" fill="#eeca3b"/><path d="m334.15230378 189.09090909h14.64095323v10.90909091h-14.64095323z" fill="#bab0ac"/><path d="m334.15230378 140.90909091h14.64095323v23.63636364h-14.64095323z" fill="#e45756"/><path d="m317.98998545 178.18181818h15.16231834v3.63636364h-15.16231834z" fill="#b279a2"/><path d="m317.98998545 152.72727273h15.16231834v25.45454545h-15.16231834z" fill="#eeca3b"/><path d="m302.34903222 168.18181818h14.64095323v31.81818182h-14.64095323z" fill="#bab0ac"/><path d="m302.34903222 150.90909091h14.64095323v14.54545455h-14.64095323z" fill="#eeca3b"/><path d="m302.34903222 127.27272727h14.64095323v23.63636364h-14.64095323z" fill="#e45756"/><path d="m302.34903222 113.63636364h14.64095323v13.63636364h-14.64095323z" fill="#4c78a8"/><path d="m286.20843743 107.27272727h15.14059479v9.09090909h-15.14059479z" fill="#4c78a8"/><path d="m286.20843743 180.90909091h15.14059479v19.09090909h-15.14059479z" fill="#bab0ac"/><path d="m286.20843743 174.54545455h15.14059479v6.36363636h-15.14059479z" fill="#b279a2"/><path d="m286.20843743 140.90909091h15.14059479v33.63636364h-15.14059479z" fill="#eeca3b"/><path d="m286.20843743 116.36363636h15.14059479v24.54545455h-15.14059479z" fill="#e45756"/><path d="m271.61021441 115.45454545h13.59822301v2.72727273h-13.59822301z" fill="#4c78a8"/><path d="m271.61021441 135.45454545h13.59822301v36.36363636h-13.59822301z" fill="#eeca3b"/><path d="m271.61021441 171.81818182h13.59822301v28.18181818h-13.59822301z" fill="#bab0ac"/><path d="m271.61021441 118.18181818h13.59822301v17.27272727h-13.59822301z" fill="#e45756"/><path d="m255.44789607 175.45454545h15.16231834v24.54545455h-15.16231834z" fill="#bab0ac"/><path d="m255.44789607 140h15.16231834v35.45454545h-15.16231834z" fill="#eeca3b"/><path d="m255.44789607 128.18181818h15.16231834v11.81818182h-15.16231834z" fill="#e45756"/><path d="m239.28557774 172.72727273h15.16231834v27.27272727h-15.16231834z" fill="#bab0ac"/><path d="m239.28557774 142.72727273h15.16231834v10.90909091h-15.16231834z" fill="#e45756"/><path d="m239.28557774 153.63636364h15.16231834v19.09090909h-15.16231834z" fill="#eeca3b"/><path d="m223.64462451 172.72727273h14.64095323v12.72727273h-14.64095323z" fill="#eeca3b"/><path d="m223.64462451 161.81818182h14.64095323v10.90909091h-14.64095323z" fill="#e45756"/><path d="m207.46058263 158.18181818h15.18404188v10h-15.18404188z" fill="#e45756"/><path d="m207.46058263 168.18181818h15.18404188v21.81818182h-15.18404188z" fill="#eeca3b"/><path d="m191.8196294 164.54545455h14.64095323v29.09090909h-14.64095323z" fill="#eeca3b"/><path d="m191.8196294 193.63636364h14.64095323v6.36363636h-14.64095323z" fill="#bab0ac"/><path d="m191.8196294 145.45454545h14.64095323v19.09090909h-14.64095323z" fill="#e45756"/><path d="m175.65731106 185.45454545h15.16231834v14.54545455h-15.16231834z" fill="#bab0ac"/><path d="m175.65731106 170h15.16231834v15.45454545h-15.16231834z" fill="#e45756"/><path d="m159.49499272 181.81818182h15.16231834v12.72727273h-15.16231834z" fill="#eeca3b"/><path d="m159.49499272 168.18181818h15.16231834v13.63636364h-15.16231834z" fill="#e45756"/><path d="m159.49499272 194.54545455h15.16231834v5.45454545h-15.16231834z" fill="#bab0ac"/><path d="m143.85403949 170.90909091h14.64095323v17.27272727h-14.64095323z" fill="#eeca3b"/><path d="m143.85403949 188.18181818h14.64095323v11.81818182h-14.64095323z" fill="#bab0ac"/><path d="m143.85403949 153.63636364h14.64095323v17.27272727h-14.64095323z" fill="#e45756"/><path d="m127.69172116 176.36363636h15.16231834v21.81818182h-15.16231834z" fill="#eeca3b"/><path d="m127.69172116 168.18181818h15.16231834v8.18181818h-15.16231834z" fill="#e45756"/><path d="m112.05076793 176.36363636h14.64095323v23.63636364h-14.64095323z" fill="#eeca3b"/><path d="m112.05076793 166.36363636h14.64095323v10h-14.64095323z" fill="#e45756"/><path d="m95.91017314 176.36363636h15.14059479v23.63636364h-15.14059479z" fill="#eeca3b"/><path d="m80.79058502 192.72727273h14.11958812v7.27272727h-14.11958812z" fill="#eeca3b"/><path d="m64.62826668 180.90909091h15.16231834v16.36363636h-15.16231834z" fill="#e45756"/><path d="m64.62826668 197.27272727h15.16231834v2.72727273h-15.16231834z" fill="#eeca3b"/><path d="m48.46594834 195.45454545h15.16231834v4.54545455h-15.16231834z" fill="#eeca3b"/><path d="m32.82499511 192.72727273h14.64095323v7.27272727h-14.64095323z" fill="#eeca3b"/><path d="m16.64095323 191.81818182h15.18404188v8.18181818h-15.18404188z" fill="#eeca3b"/><path d="m985.35904677 147.27272727h14.64095323v4.54545455h-14.64095323z" fill="#4c78a8"/><path d="m985.35904677 192.72727273h14.64095323v5.45454545h-14.64095323z" fill="#9d755d"/><path d="m985.35904677 151.81818182h14.64095323v8.18181818h-14.64095323z" fill="#e45756"/><path d="m969.17500489 102.72727273h15.18404188v2.72727273h-15.18404188z" fill="#e45756"/><path d="m969.17500489 174.54545455h15.18404188v8.18181818h-15.18404188z" fill="#9d755d"/><path d="m953.53405166 104.54545455h14.64095323v11.81818182h-14.64095323z" fill="#e45756"/><path d="m953.53405166 79.09090909h14.64095323v20.90909091h-14.64095323z" fill="#4c78a8"/><path d="m921.20941498 93.63636364h15.16231834v8.18181818h-15.16231834z" fill="#4c78a8"/><path d="m921.20941498 169.09090909h15.16231834v5.45454545h-15.16231834z" fill="#b279a2"/><path d="m905.56846176 118.18181818h14.64095323v15.45454545h-14.64095323z" fill="#e45756"/><path d="m857.6245954 100.90909091h15.14059479v12.72727273h-15.14059479z" fill="#4c78a8"/><path d="m826.34268894 199.09090909h15.16231834v.90909091h-15.16231834z" fill="#bab0ac"/><path d="m810.1803706 109.09090909h15.16231834v19.09090909h-15.16231834z" fill="#4c78a8"/><path d="m810.1803706 131.81818182h15.16231834v3.63636364h-15.16231834z" fill="#e45756"/><path d="m794.53941737 159.09090909h14.64095323v28.18181818h-14.64095323z" fill="#9d755d"/><path d="m794.53941737 20.90909091h14.64095323v35.45454545h-14.64095323z" fill="#4c78a8"/><path d="m794.53941737 59.09090909h14.64095323v29.09090909h-14.64095323z" fill="#e45756"/><path d="m794.53941737 89.09090909h14.64095323v4.54545455h-14.64095323z" fill="#54a24b"/><path d="m778.35537549 62.72727273h15.18404188v20h-15.18404188z" fill="#e45756"/><path d="m746.55210393 174.54545455h15.16231834v6.36363636h-15.16231834z" fill="#b279a2"/><path d="m730.38978559 75.45454545h15.16231834v12.72727273h-15.16231834z" fill="#e45756"/><path d="m714.74883236 152.72727273h14.64095323v3.63636364h-14.64095323z" fill="#ff9da6"/><path d="m682.94556079 60h14.64095323v26.36363636h-14.64095323z" fill="#4c78a8"/><path d="m682.94556079 170.90909091h14.64095323v29.09090909h-14.64095323z" fill="#bab0ac"/><path d="m682.94556079 88.18181818h14.64095323v2.72727273h-14.64095323z" fill="#e45756"/><path d="m636.04442465 100.90909091h15.16231834v10.90909091h-15.16231834z" fill="#e45756"/><path d="m636.04442465 79.09090909h15.16231834v20.90909091h-15.16231834z" fill="#4c78a8"/><path d="m652.20674299 125.45454545h13.59822301v17.27272727h-13.59822301z" fill="#54a24b"/><path d="m604.24115309 64.54545455h14.64095323v9.09090909h-14.64095323z" fill="#4c78a8"/><path d="m588.0571112 109.09090909h15.18404188v8.18181818h-15.18404188z" fill="#e45756"/><path d="m588.0571112 94.54545455h15.18404188v13.63636364h-15.18404188z" fill="#4c78a8"/><path d="m572.41615797 115.45454545h14.64095323v55.45454545h-14.64095323z" fill="#54a24b"/><path d="m572.41615797 76.36363636h14.64095323v15.45454545h-14.64095323z" fill="#4c78a8"/><path d="m556.25383964 103.63636364h15.16231834v13.63636364h-15.16231834z" fill="#4c78a8"/><path d="m556.25383964 189.09090909h15.16231834v9.09090909h-15.16231834z" fill="#9d755d"/><path d="m540.0915213 122.72727273h15.16231834v16.36363636h-15.16231834z" fill="#4c78a8"/><path d="m540.0915213 197.27272727h15.16231834v2.72727273h-15.16231834z" fill="#bab0ac"/><path d="m540.0915213 191.81818182h15.16231834v5.45454545h-15.16231834z" fill="#b279a2"/><path d="m524.45056807 131.81818182h14.64095323v10h-14.64095323z" fill="#4c78a8"/><path d="m508.28824973 115.45454545h15.16231834v9.09090909h-15.16231834z" fill="#e45756"/><path d="m492.6472965 125.45454545h14.64095323v10h-14.64095323z" fill="#4c78a8"/><path d="m492.6472965 193.63636364h14.64095323v6.36363636h-14.64095323z" fill="#bab0ac"/><path d="m476.50670171 96.36363636h15.14059479v14.54545455h-15.14059479z" fill="#4c78a8"/><path d="m476.50670171 194.54545455h15.14059479v5.45454545h-15.14059479z" fill="#bab0ac"/><path d="m826.34268894 182.72727273h15.16231834v.90909091h-15.16231834z" fill="#b279a2"/><path d="m461.9084787 122.72727273h13.59822301v35.45454545h-13.59822301z" fill="#e45756"/><path d="m445.74616036 116.36363636h15.16231834v2.72727273h-15.16231834z" fill="#4c78a8"/><path d="m413.9428888 196.36363636h14.64095323v3.63636364h-14.64095323z" fill="#bab0ac"/><path d="m397.75884691 143.63636364h15.18404188v15.45454545h-15.18404188z" fill="#4c78a8"/><path d="m397.75884691 159.09090909h15.18404188v3.63636364h-15.18404188z" fill="#e45756"/><path d="m382.11789368 129.09090909h14.64095323v10.90909091h-14.64095323z" fill="#4c78a8"/><path d="m365.95557535 154.54545455h15.16231834v4.54545455h-15.16231834z" fill="#4c78a8"/><path d="m349.79325701 129.09090909h15.16231834v12.72727273h-15.16231834z" fill="#e45756"/><path d="m349.79325701 189.09090909h15.16231834v10.90909091h-15.16231834z" fill="#bab0ac"/><path d="m445.74616036 199.09090909h15.16231834v.90909091h-15.16231834z" fill="#bab0ac"/><path d="m317.98998545 131.81818182h15.16231834v20.90909091h-15.16231834z" fill="#e45756"/><path d="m317.98998545 122.72727273h15.16231834v9.09090909h-15.16231834z" fill="#4c78a8"/><path d="m317.98998545 181.81818182h15.16231834v18.18181818h-15.16231834z" fill="#bab0ac"/><path d="m302.34903222 165.45454545h14.64095323v2.72727273h-14.64095323z" fill="#b279a2"/><path d="m223.64462451 185.45454545h14.64095323v14.54545455h-14.64095323z" fill="#bab0ac"/><path d="m207.46058263 190h15.18404188v10h-15.18404188z" fill="#bab0ac"/><path d="m127.69172116 198.18181818h15.16231834v1.81818182h-15.16231834z" fill="#bab0ac"/><path d="m794.53941737 187.27272727h14.64095323v12.72727273h-14.64095323z" fill="#bab0ac"/><path d="m778.35537549 157.27272727h15.18404188v11.81818182h-15.18404188z" fill="#b279a2"/><path d="m698.58651402 70.90909091h15.16231834v42.72727273h-15.16231834z" fill="#54a24b"/><path d="m508.28824973 124.54545455h15.16231834v30.90909091h-15.16231834z" fill="#54a24b"/><path d="m397.75884691 162.72727273h15.18404188v24.54545455h-15.18404188z" fill="#eeca3b"/><path d="m382.11789368 150.90909091h14.64095323v17.27272727h-14.64095323z" fill="#eeca3b"/><path d="m365.95557535 169.09090909h15.16231834v10.90909091h-15.16231834z" fill="#eeca3b"/><path d="m365.95557535 186.36363636h15.16231834v13.63636364h-15.16231834z" fill="#bab0ac"/><path d="m857.6245954 162.72727273h15.14059479v10.90909091h-15.14059479z" fill="#b279a2"/><path d="m445.74616036 142.72727273h15.16231834v18.18181818h-15.16231834z" fill="#54a24b"/><path d="m413.9428888 192.72727273h14.64095323v3.63636364h-14.64095323z" fill="#b279a2"/><path d="m382.11789368 168.18181818h14.64095323v2.72727273h-14.64095323z" fill="#b279a2"/><path d="m889.40614342 130h15.16231834v6.36363636h-15.16231834z" fill="#54a24b"/><path d="m873.76519019 195.45454545h14.64095323v4.54545455h-14.64095323z" fill="#bab0ac"/><path d="m842.50500728 192.72727273h14.11958812v7.27272727h-14.11958812z" fill="#bab0ac"/><path d="m762.71442226 166.36363636h14.64095323v6.36363636h-14.64095323z" fill="#b279a2"/><path d="m730.38978559 160h15.16231834v5.45454545h-15.16231834z" fill="#b279a2"/><path d="m714.74883236 129.09090909h14.64095323v23.63636364h-14.64095323z" fill="#b279a2"/><path d="m810.1803706 195.45454545h15.16231834v4.54545455h-15.16231834z" fill="#bab0ac"/><path d="m397.75884691 187.27272727h15.18404188v5.45454545h-15.18404188z" fill="#b279a2"/><path d="m985.35904677 160h14.64095323v4.54545455h-14.64095323z" fill="#54a24b"/><path d="m953.53405166 118.18181818h14.64095323v4.54545455h-14.64095323z" fill="#54a24b"/><path d="m937.37173332 156.36363636h15.16231834v3.63636364h-15.16231834z" fill="#54a24b"/><path d="m921.20941498 125.45454545h15.16231834v9.09090909h-15.16231834z" fill="#54a24b"/><path d="m905.56846176 134.54545455h14.64095323v7.27272727h-14.64095323z" fill="#54a24b"/><path d="m873.76519019 96.36363636h14.64095323v15.45454545h-14.64095323z" fill="#f58518"/><path d="m873.76519019 141.81818182h14.64095323v8.18181818h-14.64095323z" fill="#54a24b"/><path d="m842.50500728 105.45454545h14.11958812v6.36363636h-14.11958812z" fill="#f58518"/><path d="m842.50500728 145.45454545h14.11958812v14.54545455h-14.11958812z" fill="#54a24b"/><path d="m826.34268894 148.18181818h15.16231834v6.36363636h-15.16231834z" fill="#54a24b"/><path d="m778.35537549 82.72727273h15.18404188v15.45454545h-15.18404188z" fill="#54a24b"/><path d="m778.35537549 58.18181818h15.18404188v4.54545455h-15.18404188z" fill="#f58518"/><path d="m762.71442226 81.81818182h14.64095323v33.63636364h-14.64095323z" fill="#54a24b"/><path d="m746.55210393 143.63636364h15.16231834v10.90909091h-15.16231834z" fill="#54a24b"/><path d="m746.55210393 118.18181818h15.16231834v6.36363636h-15.16231834z" fill="#f58518"/><path d="m730.38978559 67.27272727h15.16231834v8.18181818h-15.16231834z" fill="#f58518"/><path d="m730.38978559 90h15.16231834v14.54545455h-15.16231834z" fill="#54a24b"/><path d="m714.74883236 90h14.64095323v21.81818182h-14.64095323z" fill="#54a24b"/><path d="m714.74883236 46.36363636h14.64095323v11.81818182h-14.64095323z" fill="#f58518"/><path d="m698.58651402 38.18181818h15.16231834v9.09090909h-15.16231834z" fill="#f58518"/><path d="m682.94556079 95.45454545h14.64095323v10h-14.64095323z" fill="#54a24b"/><path d="m666.804966 128.18181818h15.14059479v5.45454545h-15.14059479z" fill="#b279a2"/><path d="m666.804966 65.45454545h15.14059479v9.09090909h-15.14059479z" fill="#f58518"/><path d="m652.20674299 97.27272727h13.59822301v10.90909091h-13.59822301z" fill="#f58518"/><path d="m652.20674299 142.72727273h13.59822301v12.72727273h-13.59822301z" fill="#eeca3b"/><path d="m652.20674299 155.45454545h13.59822301v7.27272727h-13.59822301z" fill="#b279a2"/><path d="m636.04442465 124.54545455h15.16231834v10.90909091h-15.16231834z" fill="#54a24b"/><path d="m636.04442465 161.81818182h15.16231834v4.54545455h-15.16231834z" fill="#b279a2"/><path d="m636.04442465 100h15.16231834v.90909091h-15.16231834z" fill="#f58518"/><path d="m619.88210632 129.09090909h15.16231834v3.63636364h-15.16231834z" fill="#f58518"/><path d="m604.24115309 197.27272727h14.64095323v2.72727273h-14.64095323z" fill="#bab0ac"/><path d="m588.0571112 118.18181818h15.18404188v15.45454545h-15.18404188z" fill="#54a24b"/><path d="m588.0571112 108.18181818h15.18404188v.90909091h-15.18404188z" fill="#f58518"/><path d="m572.41615797 170.90909091h14.64095323v13.63636364h-14.64095323z" fill="#eeca3b"/><path d="m572.41615797 91.81818182h14.64095323v.90909091h-14.64095323z" fill="#f58518"/><path d="m556.25383964 198.18181818h15.16231834v1.81818182h-15.16231834z" fill="#bab0ac"/><path d="m524.45056807 150.90909091h14.64095323v13.63636364h-14.64095323z" fill="#54a24b"/><path d="m492.6472965 153.63636364h14.64095323v18.18181818h-14.64095323z" fill="#54a24b"/><path d="m461.9084787 199.09090909h13.59822301v.90909091h-13.59822301z" fill="#bab0ac"/><path d="m461.9084787 198.18181818h13.59822301v.90909091h-13.59822301z" fill="#b279a2"/><path d="m429.58384203 172.72727273h15.16231834v5.45454545h-15.16231834z" fill="#54a24b"/><path d="m397.75884691 192.72727273h15.18404188v7.27272727h-15.18404188z" fill="#bab0ac"/><path d="m682.94556079 134.54545455h14.64095323v10h-14.64095323z" fill="#b279a2"/><path d="m572.41615797 184.54545455h14.64095323v2.72727273h-14.64095323z" fill="#b279a2"/><path d="m905.56846176 165.45454545h14.64095323v4.54545455h-14.64095323z" fill="#b279a2"/><path d="m969.17500489 172.72727273h15.18404188v1.81818182h-15.18404188z" fill="#ff9da6"/><path d="m953.53405166 169.09090909h14.64095323v1.81818182h-14.64095323z" fill="#ff9da6"/><path d="m953.53405166 163.63636364h14.64095323v5.45454545h-14.64095323z" fill="#b279a2"/><path d="m937.37173332 175.45454545h15.16231834v3.63636364h-15.16231834z" fill="#b279a2"/><path d="m921.20941498 174.54545455h15.16231834v.90909091h-15.16231834z" fill="#ff9da6"/><path d="m889.40614342 165.45454545h15.16231834v.90909091h-15.16231834z" fill="#b279a2"/><path d="m873.76519019 176.36363636h14.64095323v4.54545455h-14.64095323z" fill="#b279a2"/><path d="m873.76519019 180.90909091h14.64095323v1.81818182h-14.64095323z" fill="#ff9da6"/><path d="m842.50500728 179.09090909h14.11958812v.90909091h-14.11958812z" fill="#b279a2"/><path d="m826.34268894 183.63636364h15.16231834v.90909091h-15.16231834z" fill="#ff9da6"/><path d="m810.1803706 166.36363636h15.16231834v.90909091h-15.16231834z" fill="#ff9da6"/><path d="m524.45056807 190.90909091h14.64095323v6.36363636h-14.64095323z" fill="#b279a2"/><path d="m508.28824973 104.54545455h15.16231834v10.90909091h-15.16231834z" fill="#4c78a8"/><path d="m508.28824973 187.27272727h15.16231834v1.81818182h-15.16231834z" fill="#b279a2"/><path d="m492.6472965 189.09090909h14.64095323v4.54545455h-14.64095323z" fill="#b279a2"/><path d="m985.35904677 191.81818182h14.64095323v.90909091h-14.64095323z" fill="#ff9da6"/><path d="m794.53941737 157.27272727h14.64095323v1.81818182h-14.64095323z" fill="#ff9da6"/><path d="m937.37173332 179.09090909h15.16231834v2.72727273h-15.16231834z" fill="#ff9da6"/><path d="m905.56846176 114.54545455h14.64095323v.90909091h-14.64095323z" fill="#4c78a8"/><path d="m889.40614342 166.36363636h15.16231834v.90909091h-15.16231834z" fill="#ff9da6"/><path d="m857.6245954 173.63636364h15.14059479v.90909091h-15.14059479z" fill="#ff9da6"/><path d="m556.25383964 185.45454545h15.16231834v3.63636364h-15.16231834z" fill="#b279a2"/><path d="m953.53405166 100h14.64095323v4.54545455h-14.64095323z" fill="#f58518"/><path d="m921.20941498 101.81818182h15.16231834v10h-15.16231834z" fill="#f58518"/><path d="m905.56846176 115.45454545h14.64095323v2.72727273h-14.64095323z" fill="#f58518"/><path d="m905.56846176 133.63636364h14.64095323v.90909091h-14.64095323z" fill="#72b7b2"/><path d="m889.40614342 129.09090909h15.16231834v.90909091h-15.16231834z" fill="#72b7b2"/><path d="m889.40614342 100h15.16231834v7.27272727h-15.16231834z" fill="#f58518"/><path d="m873.76519019 140.90909091h14.64095323v.90909091h-14.64095323z" fill="#72b7b2"/><path d="m857.6245954 113.63636364h15.14059479v10.90909091h-15.14059479z" fill="#f58518"/><path d="m842.50500728 140h14.11958812v5.45454545h-14.11958812z" fill="#72b7b2"/><path d="m826.34268894 146.36363636h15.16231834v1.81818182h-15.16231834z" fill="#72b7b2"/><path d="m826.34268894 120.90909091h15.16231834v10h-15.16231834z" fill="#f58518"/><path d="m810.1803706 136.36363636h15.16231834v9.09090909h-15.16231834z" fill="#54a24b"/><path d="m762.71442226 80.90909091h14.64095323v.90909091h-14.64095323z" fill="#72b7b2"/><path d="m714.74883236 80h14.64095323v10h-14.64095323z" fill="#72b7b2"/><path d="m857.6245954 143.63636364h15.14059479v5.45454545h-15.14059479z" fill="#54a24b"/><path d="m921.20941498 192.72727273h15.16231834v7.27272727h-15.16231834z" fill="#bab0ac"/><path d="m905.56846176 187.27272727h14.64095323v12.72727273h-14.64095323z" fill="#bab0ac"/><path d="m794.53941737 156.36363636h14.64095323v.90909091h-14.64095323z" fill="#b279a2"/><path d="m698.58651402 151.81818182h15.16231834v1.81818182h-15.16231834z" fill="#b279a2"/><path d="m588.0571112 176.36363636h15.18404188v.90909091h-15.18404188z" fill="#b279a2"/><path d="m619.88210632 174.54545455h15.16231834v2.72727273h-15.16231834z" fill="#b279a2"/><path d="m588.0571112 117.27272727h15.18404188v.90909091h-15.18404188z" fill="#72b7b2"/><path d="m937.37173332 116.36363636h15.16231834v1.81818182h-15.16231834z" fill="#f58518"/><path d="m810.1803706 128.18181818h15.16231834v3.63636364h-15.16231834z" fill="#f58518"/><path d="m794.53941737 56.36363636h14.64095323v2.72727273h-14.64095323z" fill="#f58518"/><path d="m762.71442226 41.81818182h14.64095323v4.54545455h-14.64095323z" fill="#f58518"/><g fill="#72b7b2"><path d="m682.94556079 90.90909091h14.64095323v4.54545455h-14.64095323z"/><path d="m652.20674299 117.27272727h13.59822301v8.18181818h-13.59822301z"/><path d="m636.04442465 111.81818182h15.16231834v12.72727273h-15.16231834z"/><path d="m604.24115309 95.45454545h14.64095323v3.63636364h-14.64095323z"/><path d="m619.88210632 135.45454545h15.16231834v2.72727273h-15.16231834z"/><path d="m746.55210393 142.72727273h15.16231834v.90909091h-15.16231834z"/><path d="m730.38978559 88.18181818h15.16231834v1.81818182h-15.16231834z"/><path d="m698.58651402 70h15.16231834v.90909091h-15.16231834z"/><path d="m810.1803706 135.45454545h15.16231834v.90909091h-15.16231834z"/><path d="m794.53941737 88.18181818h14.64095323v.90909091h-14.64095323z"/></g><path d="m937.37173332 199.09090909h15.16231834v.90909091h-15.16231834z" fill="#bab0ac"/><path d="m889.40614342 191.81818182h15.16231834v8.18181818h-15.16231834z" fill="#bab0ac"/><path d="m969.17500489 105.45454545h15.18404188v.90909091h-15.18404188z" fill="#72b7b2"/><path d="m953.53405166 116.36363636h14.64095323v1.81818182h-14.64095323z" fill="#72b7b2"/><g pointer-events="none" transform="translate(1018)"><path d="m0 0h50v144h-50z"/><g transform="translate(0 16)"><path d="m0 0h49.35449219v11h-49.35449219z"/><path d="m-5-5h10v10h-10z" fill="#4c78a8" stroke-width="1.5" transform="translate(6 6)"/><text fill="#000" font-family="sans-serif" font-size="10" transform="translate(16 9)">Bill</text><g transform="translate(0 13)"><path d="m0 0h49.35449219v11h-49.35449219z"/><path d="m-5-5h10v10h-10z" fill="#f58518" stroke-width="1.5" transform="translate(6 6)"/><text fill="#000" font-family="sans-serif" font-size="10" transform="translate(16 9)">Fred</text></g><g transform="translate(0 26)"><path d="m0 0h49.35449219v11h-49.35449219z"/><path d="m-5-5h10v10h-10z" fill="#e45756" stroke-width="1.5" transform="translate(6 6)"/><text fill="#000" font-family="sans-serif" font-size="10" transform="translate(16 9)">George</text></g><g transform="translate(0 39)"><path d="m0 0h49.35449219v11h-49.35449219z"/><path d="m-5-5h10v10h-10z" fill="#72b7b2" stroke-width="1.5" transform="translate(6 6)"/><text fill="#000" font-family="sans-serif" font-size="10" transform="translate(16 9)">John</text></g><g transform="translate(0 52)"><path d="m0 0h49.35449219v11h-49.35449219z"/><path d="m-5-5h10v10h-10z" fill="#54a24b" stroke-width="1.5" transform="translate(6 6)"/><text fill="#000" font-family="sans-serif" font-size="10" transform="translate(16 9)">Mark</text></g><g transform="translate(0 65)"><path d="m0 0h49.35449219v11h-49.35449219z"/><path d="m-5-5h10v10h-10z" fill="#eeca3b" stroke-width="1.5" transform="translate(6 6)"/><text fill="#000" font-family="sans-serif" font-size="10" transform="translate(16 9)">Nick</text></g><g transform="translate(0 78)"><path d="m0 0h49.35449219v11h-49.35449219z"/><path d="m-5-5h10v10h-10z" fill="#b279a2" stroke-width="1.5" transform="translate(6 6)"/><text fill="#000" font-family="sans-serif" font-size="10" transform="translate(16 9)">Oscar</text></g><g transform="translate(0 91)"><path d="m0 0h49.35449219v11h-49.35449219z"/><path d="m-5-5h10v10h-10z" fill="#ff9da6" stroke-width="1.5" transform="translate(6 6)"/><text fill="#000" font-family="sans-serif" font-size="10" transform="translate(16 9)">Peter</text></g><g transform="translate(0 104)"><path d="m0 0h49.35449219v11h-49.35449219z"/><path d="m-5-5h10v10h-10z" fill="#9d755d" stroke-width="1.5" transform="translate(6 6)"/><text fill="#000" font-family="sans-serif" font-size="10" transform="translate(16 9)">Sam</text></g><g transform="translate(0 117)"><path d="m0 0h49.35449219v11h-49.35449219z"/><path d="m-5-5h10v10h-10z" fill="#bab0ac" stroke-width="1.5" transform="translate(6 6)"/><text fill="#000" font-family="sans-serif" font-size="10" transform="translate(16 9)">Zack</text></g></g><text fill="#000" font-family="sans-serif" font-size="11" font-weight="bold" transform="translate(0 9)">Members</text></g></g></svg>