<svg height="526" viewBox="0 0 263 263" width="526" xmlns="http://www.w3.org/2000/svg"><path d="m0 0h263v263h-263z" fill="#fff"/><g fill="none" stroke-miterlimit="10" transform="translate(53 5)"><path d="m.5.5h200v200h-200z" stroke="#ddd"/><g pointer-events="none" stroke="#ddd" transform="translate(.5 .5)"><path d="m0 200h200"/><path d="m0 144h200"/><path d="m0 89h200"/><path d="m0 33h200"/></g><g pointer-events="none" transform="translate(.5 200.5)"><g stroke="#888"><path d="m10 0v5"/><path d="m30 0v5"/><path d="m50 0v5"/><path d="m70 0v5"/><path d="m90 0v5"/><path d="m110 0v5"/><path d="m130 0v5"/><path d="m150 0v5"/><path d="m170 0v5"/><path d="m190 0v5"/></g><g fill="#000" font-family="sans-serif" font-size="10"><text transform="matrix(.70710678 .70710678 -.70710678 .70710678 3.843146 12.656854)">Bill</text><text transform="matrix(.70710678 .70710678 -.70710678 .70710678 23.843146 12.656854)">Fred</text><text transform="matrix(.70710678 .70710678 -.70710678 .70710678 43.843146 12.656854)">George</text><text transform="matrix(.70710678 .70710678 -.70710678 .70710678 63.843146 12.656854)">John</text><text transform="matrix(.70710678 .70710678 -.70710678 .70710678 83.843146 12.656854)">Mark</text><text transform="matrix(.70710678 .70710678 -.70710678 .70710678 103.843146 12.656854)">Nick</text><text transform="matrix(.70710678 .70710678 -.70710678 .70710678 123.843146 12.656854)">Oscar</text><text transform="matrix(.70710678 .70710678 -.70710678 .70710678 143.843146 12.656854)">Peter</text><text transform="matrix(.70710678 .70710678 -.70710678 .70710678 163.843146 12.656854)">Sam</text><text transform="matrix(.70710678 .70710678 -.70710678 .70710678 183.843146 12.656854)">Zack</text></g><path d="m0 0h200" stroke="#888"/><text fill="#000" font-family="sans-serif" font-size="11" font-weight="bold" text-anchor="middle" transform="translate(100 50.656255)">Members</text></g><g pointer-events="none" transform="translate(.5 .5)"><g stroke="#888"><path d="m0 200h-5"/><path d="m0 144h-5"/><path d="m0 89h-5"/><path d="m0 33h-5"/></g><g fill="#000" font-family="sans-serif" font-size="10" text-anchor="end"><text transform="translate(-7 203)">0</text><text transform="translate(-7 147.444444)">500</text><text transform="translate(-7 91.888889)">1,000</text><text transform="translate(-7 36.333333)">1,500</text></g><path d="m0 200v-200" stroke="#888"/><text fill="#000" font-family="sans-serif" font-size="11" font-weight="bold" text-anchor="middle" transform="matrix(0 -1 1 0 -38.024414 100)">Number of closed PRs</text></g><g fill="#4c78a8"><path d="m41 79.33333333h18v120.66666667h-18z"/><path d="m101 12.33333333h18v187.66666667h-18z"/><path d="m121 170.66666667h18v29.33333333h-18z"/><path d="m181 123.22222222h18v76.77777778h-18z"/><path d="m1 115.55555556h18v84.44444444h-18z"/><path d="m81 127.33333333h18v72.66666667h-18z"/><path d="m161 139.33333333h18v60.66666667h-18z"/><path d="m21 181.88888889h18v18.11111111h-18z"/><path d="m141 197.66666667h18v2.33333333h-18z"/><path d="m61 192.44444444h18v7.55555556h-18z"/></g></g></svg>